<svg width="180" height="180" xmlns="http://www.w3.org/2000/svg">
 <defs>
  <style>.cls-1{fill:#ffe76e;}.cls-2{fill:#2fb1ea;}.cls-3{fill:#6dd0fc;}.cls-4{fill:#a4ecff;}.cls-5{fill:#d4ffd4;}.cls-6{fill:#ffbdbd;}.cls-7{fill:#bbf1ff;}.cls-8{fill:#fff4c5;}</style>
 </defs>
 <title>business economic finance interprise company graph</title>
 <g>
  <title>background</title>
  <rect fill="none" id="canvas_background" height="182" width="182" y="-1" x="-1"/>
 </g>
 <g>
  <title>Layer 1</title>
  <g id="Layer_2">
   <rect id="svg_1" transform="matrix(0, 0.811733, -0.730149, 0, 69.0745, -185.781)" ry="7.04" rx="7.04" height="91.64" width="14.09" y="-49.919999" x="256.360001" class="cls-1"/>
   <rect id="svg_2" transform="matrix(0, 0.811733, -0.730149, 0, 98.7551, -160.512)" ry="7.04" rx="7.04" height="60.51" width="14.09" y="21.86" x="245.549996" class="cls-1"/>
   <rect id="svg_3" transform="matrix(0, 0.811733, -0.730149, 0, 128.428, -151.08)" ry="7.04" rx="7.04" height="48.89" width="14.09" y="74.12" x="254.250005" class="cls-1"/>
   <rect id="svg_4" transform="matrix(0, 0.811733, -0.730149, 0, 158.102, -178.5)" ry="7.04" rx="7.04" height="82.67" width="14.09" y="80.98" x="308.349997" class="cls-1"/>
   <path id="svg_5" d="m26.667446,176.543686a1.460299,1.623466 0 0 1 -1.4603,-1.623459l0,-168.840448a1.460299,1.623466 0 0 1 2.920597,0l0,168.840448a1.460299,1.623466 0 0 1 -1.460297,1.623459z" class="cls-2"/>
   <polygon id="svg_6" points="31.048345773086112,158.68556213378906 50.03222449900568,127.29585266113281 69.01610708156295,116.74332427978516 87.99999737739563,125.90778350830078 106.98387224667749,96.70162963867188 125.96776254251017,99.16119384765625 144.95162969851663,43.419490814208984 144.95162969851663,158.68556213378906 31.048345773086112,158.68556213378906 " class="cls-3"/>
   <polygon id="svg_7" points="85.8095428604829,135.25894165039062 104.79343315631559,144.4234161376953 123.77731573887286,115.2172622680664 142.76119832143013,117.67680358886719 144.95162969851663,111.23977661132812 144.95162969851663,43.419490814208984 125.96776254251017,99.16119384765625 106.98387224667749,96.70162963867188 87.99999737739563,125.90778350830078 69.01610708156295,116.74332427978516 50.03222449900568,127.29585266113281 37.33492748246317,148.2872772216797 65.35076632066921,148.24668884277344 66.82566027792564,145.8114776611328 85.8095428604829,135.25894165039062 " class="cls-4"/>
   <path id="svg_8" d="m144.95163,160.309036l-113.903284,0a1.460299,1.623466 0 0 1 -1.212051,-2.532608l18.983881,-31.389709a1.460299,1.623466 0 0 1 0.562218,-0.543861l18.983879,-10.552528a1.460299,1.623466 0 0 1 1.233955,0l17.903267,8.644943l18.297539,-28.150894a1.460299,1.623466 0 0 1 1.350777,-0.657509l17.852165,2.313446l18.582283,-54.556564a1.460299,1.623466 0 0 1 2.825699,0.53574l0,115.266071a1.460299,1.623466 0 0 1 -1.460327,1.623474zm-111.16523,-3.246948l109.704948,0l0,-104.770355l-16.158211,47.43766a1.460299,1.623466 0 0 1 -1.533318,1.039024l-18.129601,-2.345901l-18.48008,28.410645a1.460299,1.623466 0 0 1 -1.766968,0.535744l-18.355949,-8.864113l-18.034691,10.057373l-17.246132,28.499924z" class="cls-2"/>
   <path id="svg_9" d="m163.935532,160.309036l-151.871076,0a1.460299,1.623466 0 0 1 0,-3.246948l151.871076,0a1.460299,1.623466 0 0 1 0,3.246948z" class="cls-2"/>
   <circle id="svg_10" r="3.568047" cy="174.92022" cx="145.681795" class="cls-5"/>
   <circle id="svg_11" r="2.854431" cy="122.157582" cx="15.715204" class="cls-5"/>
   <circle id="svg_12" r="2.140821" cy="58.842416" cx="120.856716" class="cls-5"/>
   <circle id="svg_13" r="1.427219" cy="96.993862" cx="70.476408" class="cls-5"/>
   <circle id="svg_14" r="0.713608" cy="173.296754" cx="15.715204" class="cls-5"/>
   <circle id="svg_15" r="3.568047" cy="140.827439" cx="-0.348082" class="cls-6"/>
   <circle id="svg_16" r="2.854439" cy="11.761909" cx="140.57075" class="cls-6"/>
   <circle id="svg_17" r="2.140823" cy="57.218951" cx="16.445353" class="cls-6"/>
   <circle id="svg_18" r="1.427212" cy="46.666423" cx="158.824484" class="cls-6"/>
   <circle id="svg_19" r="0.713608" cy="76.70054" cx="167.586277" class="cls-6"/>
   <circle id="svg_20" r="3.568038" cy="6.079778" cx="104.79343" class="cls-7"/>
   <circle id="svg_21" r="2.854431" cy="92.935198" cx="10.604158" class="cls-7"/>
   <circle id="svg_22" r="2.140823" cy="167.614624" cx="98.952234" class="cls-7"/>
   <circle id="svg_23" r="1.427216" cy="69.394944" cx="115.015521" class="cls-7"/>
   <circle id="svg_24" r="0.713609" cy="28.808299" cx="14.985055" class="cls-7"/>
   <circle id="svg_25" r="3.568043" cy="129.463178" cx="176.34807" class="cls-8"/>
   <circle id="svg_26" r="2.854431" cy="69.394944" cx="154.443588" class="cls-8"/>
   <circle id="svg_27" r="2.140824" cy="15.00884" cx="65.365363" class="cls-8"/>
   <circle id="svg_28" r="1.427216" cy="110.793321" cx="48.571927" class="cls-8"/>
   <circle id="svg_29" r="0.713608" cy="175.731953" cx="66.095512" class="cls-8"/>
  </g>
 </g>
</svg>