<svg width="180" height="180" xmlns="http://www.w3.org/2000/svg">
 <defs>
  <style>.cls-1{fill:#ffd659;}.cls-2{fill:#2fb1ea;}.cls-3{fill:#6dd0fc;}.cls-4{fill:#a4ecff;}.cls-5{fill:#f88;}.cls-6{fill:#f97171;}.cls-7{fill:#fff;}.cls-8{fill:#ffc444;}.cls-9{fill:#ffe76e;}.cls-10{fill:#d4ffd4;}.cls-11{fill:#ffbdbd;}.cls-12{fill:#bbf1ff;}.cls-13{fill:#fff4c5;}</style>
 </defs>
 <title>business economic finance interprise company team work</title>
 <g>
  <title>background</title>
  <rect fill="none" id="canvas_background" height="182" width="182" y="-1" x="-1"/>
 </g>
 <g>
  <title>Layer 1</title>
  <g id="Layer_2">
   <polygon id="svg_1" points="155.15524291992188,57.8437502011916 155.15524291992188,64.17284550808472 137.18917846679688,67.43533336579276 119.21598815917969,64.17284550808472 119.21598815917969,57.8437502011916 126.49526977539062,47.90554963222644 147.88308715820312,47.90554963222644 155.15524291992188,57.8437502011916 " class="cls-1"/>
   <path id="svg_2" d="m137.189178,68.942268l-0.242874,0l-17.966064,-3.262497a1.428712,1.506928 0 0 1 -1.185822,-1.506927l0,-6.329094a1.428712,1.506928 0 0 1 0.300026,-0.919231l7.264999,-9.938194a1.428712,1.506928 0 0 1 1.128693,-0.5877l21.38781,0a1.428712,1.506928 0 0 1 1.128693,0.5877l7.286438,9.938194a1.428712,1.506928 0 0 1 0.300018,0.919231l0,6.329094a1.428712,1.506928 0 0 1 -1.185822,1.506935l-17.966064,3.262489l-0.250031,0zm-16.287308,-6.027706l16.537338,3.013859l16.537338,-3.013859l0,-4.520771l-6.543488,-8.943634l-20.001976,0l-6.543503,8.943634l0.01429,4.520771z" class="cls-2"/>
   <path id="svg_3" d="m166.392059,64.745483l0,29.520699a18.001776,18.987291 0 0 1 -18.00177,18.987297l-22.409348,0a18.001776,18.987291 0 0 1 -18.00177,-18.987297l0,-29.520699a7.20071,7.594917 0 0 1 4.600449,-7.082565l3.728935,-1.506935l20.880638,11.301949l20.880615,-11.301949l3.728943,1.506935a7.20071,7.594917 0 0 1 4.593307,7.082565z" class="cls-3"/>
   <path id="svg_4" d="m166.392059,64.745483l0,22.031281a18.001776,18.987291 0 0 1 -18.00177,18.987289l-22.409348,0a18.001776,18.987291 0 0 1 -18.00177,-18.987289l0,-22.031281a7.20071,7.594917 0 0 1 4.600449,-7.082565l3.728935,-1.506935l20.880638,11.301949l20.880615,-11.301949l3.728943,1.506935a7.20071,7.594917 0 0 1 4.593307,7.082565z" class="cls-4"/>
   <path id="svg_5" d="m125.002266,79.85997a7.086413,7.474362 0 0 0 4.157555,-0.3918l0.500046,0.51989a10.765347,11.3547 0 0 0 15.044342,0l0.500046,-0.51989a7.143561,7.534639 0 0 0 2.678833,0.557556a7.236428,7.63259 0 0 0 1.500153,-0.165756a7.143561,7.534639 0 0 0 4.800476,-3.767326l8.979462,-17.63858a7.193566,7.587381 0 0 0 -1.364426,-0.753464l-3.728943,-1.506927l-20.88063,11.301956l-20.902054,-11.35471l-3.728935,1.506927a7.193566,7.587381 0 0 0 -1.364426,0.753464l8.979462,17.64613a7.143561,7.534639 0 0 0 4.829041,3.812531z" class="cls-3"/>
   <path id="svg_6" d="m148.390289,114.760399l-22.409348,0a19.451918,20.516823 0 0 1 -19.430481,-20.494217l0,-29.520699a8.68657,9.162121 0 0 1 5.507675,-8.484001l3.728943,-1.506935a1.428712,1.506928 0 0 1 1.171539,0.067822l20.223434,10.947819l20.23056,-10.970421a1.428712,1.506928 0 0 1 1.171539,-0.06781l3.728943,1.506924a8.68657,9.162121 0 0 1 5.50769,8.484005l0,29.520699a19.451918,20.516823 0 0 1 -19.430496,20.516815zm-32.146019,-56.969402l-3.136024,1.280888a5.807715,6.125662 0 0 0 -3.686081,5.673599l0,29.520699a16.594492,17.502968 0 0 0 16.573059,17.480362l22.409363,0a16.594492,17.502968 0 0 0 16.573059,-17.480362l0,-29.520699a5.807715,6.125662 0 0 0 -3.686081,-5.673592l-3.136032,-1.280895l-20.309143,10.985516a1.428712,1.506928 0 0 1 -1.307266,0l-20.294853,-10.985516z" class="cls-2"/>
   <path id="svg_7" d="m143.668396,103.028984l-3.571777,5.198898a3.571781,3.76732 0 0 1 -5.836288,0l-3.571777,-5.198898a7.20071,7.594917 0 0 1 -1.278717,-5.605782l3.30748,-22.204582l9.000885,0l3.257462,22.181984a7.20071,7.594917 0 0 1 -1.307266,5.62838z" class="cls-5"/>
   <path id="svg_8" d="m133.524536,75.21862l-1.164398,7.92646a8.779437,9.260072 0 0 0 9.650955,0l-1.164398,-7.92646l-7.322159,0z" class="cls-6"/>
   <path id="svg_9" d="m137.189178,111.317078a5.000493,5.274248 0 0 1 -4.078979,-2.200111l-3.571777,-5.198898a8.572273,9.041568 0 0 1 -1.528717,-6.720894l3.2789,-22.181992a1.428712,1.506928 0 0 1 1.428711,-1.273338l9.000885,0a1.428712,1.506928 0 0 1 1.428726,1.273338l3.257462,22.181992a8.572273,9.041568 0 0 1 -1.528732,6.720909l-3.571762,5.198883a5.000493,5.274248 0 0 1 -4.114716,2.200111zm-3.278885,-34.591515l-3.06459,20.901093a5.714849,6.027711 0 0 0 1.02153,4.520767l3.571777,5.198906a2.143068,2.260392 0 0 0 3.521774,0l3.571793,-5.198906l0,0a5.714849,6.027711 0 0 0 1.021515,-4.520767l-3.09317,-20.901093l-6.550629,0z" class="cls-2"/>
   <path id="svg_10" d="m146.890137,70.818398l-7.179276,7.414093a3.571781,3.76732 0 0 1 -5.04335,0l-7.179283,-7.429161l9.700951,-4.136505l9.700958,4.151573z" class="cls-5"/>
   <path id="svg_11" d="m137.189178,80.831924a5.000493,5.274248 0 0 1 -3.521774,-1.50692l-7.179268,-7.429146a1.428712,1.506928 0 0 1 0.464325,-2.471375l9.700951,-4.136513a1.428712,1.506928 0 0 1 1.071533,0l9.700958,4.136513a1.428712,1.506928 0 0 1 0.46434,2.471375l-7.179291,7.429146a5.000493,5.274248 0 0 1 -3.521774,1.50692zm-7.143555,-9.478584l5.621979,5.816757a2.178786,2.298065 0 0 0 3.043152,0l5.621979,-5.816757l-7.143555,-3.01384l-7.143555,3.01384z" class="cls-2"/>
   <polygon id="svg_12" points="123.74500274658203,49.6611433122423 116.30855560302734,56.14091985942355 126.4881362915039,76.13031520090408 137.18917846679688,67.43533336579276 123.74500274658203,49.6611433122423 " class="cls-7"/>
   <path id="svg_13" d="m126.480988,77.637245a1.428712,1.506928 0 0 1 -0.300018,0a1.428712,1.506928 0 0 1 -0.957237,-0.753464l-10.17244,-20.027073a1.428712,1.506928 0 0 1 0.350037,-1.876129l7.429298,-6.479782a1.428712,1.506928 0 0 1 2.02877,0.218506l13.444191,17.781742a1.428712,1.506928 0 0 1 -0.242874,2.132294l-10.715347,8.694984a1.428712,1.506928 0 0 1 -0.86438,0.308922zm-8.357964,-21.096981l8.822289,17.32967l8.215103,-6.675713l-11.629715,-15.400784l-5.407677,4.746826z" class="cls-2"/>
   <polygon id="svg_14" points="150.63336181640625,49.6611433122423 158.0626678466797,56.14091985942355 147.89024353027344,76.13031520090408 137.18917846679688,67.43533336579276 150.63336181640625,49.6611433122423 " class="cls-7"/>
   <path id="svg_15" d="m147.890244,77.637245a1.428712,1.506928 0 0 1 -0.871521,-0.31646l-10.715332,-8.694969a1.428712,1.506928 0 0 1 -0.242874,-2.132301l13.444168,-17.78175a1.428712,1.506928 0 0 1 2.028778,-0.218506l7.429306,6.479794a1.428712,1.506928 0 0 1 0.350037,1.876137l-10.165298,19.996918a1.428712,1.506928 0 0 1 -0.95723,0.753479a1.428712,1.506928 0 0 1 -0.300034,0.037659zm-8.679428,-10.458084l8.215103,6.675705l8.822296,-17.329685l-5.407684,-4.716679l-11.629715,15.370659z" class="cls-2"/>
   <rect id="svg_16" ry="20.16" rx="20.16" height="37.974582" width="28.80284" y="15.694977" x="122.780623" class="cls-8"/>
   <rect id="svg_17" ry="20.16" rx="20.16" height="32.700335" width="28.80284" y="15.694977" x="122.780623" class="cls-9"/>
   <path id="svg_18" d="m137.189178,55.176483a15.851563,16.719364 0 0 1 -15.830132,-16.696754l0,-7.594913a15.830132,16.69676 0 1 1 31.660271,0l0,7.59491a15.851563,16.719364 0 0 1 -15.830139,16.696758zm0,-37.974573a12.986996,13.697974 0 0 0 -12.97271,13.682905l0,7.59491a12.972708,13.682904 0 1 0 25.945412,0l0,-7.59491a12.986996,13.697974 0 0 0 -12.972702,-13.682905z" class="cls-2"/>
   <polygon id="svg_19" points="64.77490234375,57.8437502011916 64.77490234375,64.17284550808472 46.80884552001953,67.43533336579276 28.842790603637695,64.17284550808472 28.842790603637695,57.8437502011916 36.11493682861328,47.90554963222644 57.50275802612305,47.90554963222644 64.77490234375,57.8437502011916 " class="cls-1"/>
   <path id="svg_20" d="m46.808846,68.942268l-0.242878,0l-17.966063,-3.262497a1.428712,1.506928 0 0 1 -1.185829,-1.506927l0,-6.329094a1.428712,1.506928 0 0 1 0.292887,-0.919231l7.279289,-9.938194a1.428712,1.506928 0 0 1 1.128685,-0.5877l21.387821,0a1.428712,1.506928 0 0 1 1.128685,0.5877l7.279293,9.938194a1.428712,1.506928 0 0 1 0.300026,0.919231l0,6.329094a1.428712,1.506928 0 0 1 -1.185829,1.506935l-17.966057,3.262489l-0.250031,0zm-16.287317,-6.027706l16.537348,3.013859l16.537346,-3.013859l0,-4.520771l-6.79353,-8.981304l-20.001972,0l-6.543503,8.943615l0.264311,4.55846z" class="cls-2"/>
   <path id="svg_21" d="m76.018867,64.745483l0,29.520699a18.001776,18.987291 0 0 1 -18.001778,18.987297l-22.409344,0a18.001776,18.987291 0 0 1 -18.001778,-18.987297l0,-29.520699a7.20071,7.594917 0 0 1 4.600454,-7.082565l3.728937,-1.506935l20.88063,11.301949l20.894917,-11.317013l3.728943,1.506927a7.20071,7.594917 0 0 1 4.579018,7.097637z" class="cls-3"/>
   <path id="svg_22" d="m76.018867,64.745483l0,22.031281a18.001776,18.987291 0 0 1 -18.001778,18.987289l-22.409344,0a18.001776,18.987291 0 0 1 -18.001778,-18.987289l0,-22.031281a7.20071,7.594917 0 0 1 4.600454,-7.082565l3.728937,-1.506935l20.88063,11.301949l20.894917,-11.317013l3.728943,1.506927a7.20071,7.594917 0 0 1 4.579018,7.097637z" class="cls-4"/>
   <path id="svg_23" d="m34.629074,79.85997a7.086413,7.474362 0 0 0 4.157551,-0.3918l0.50005,0.51989a10.765347,11.3547 0 0 0 15.044338,0l0.500053,-0.51989a7.143561,7.534639 0 0 0 2.678837,0.557556a7.236428,7.63259 0 0 0 1.500145,-0.165756a7.143561,7.534639 0 0 0 4.800476,-3.767326l8.972313,-17.676254a7.193566,7.587381 0 0 0 -1.364418,-0.753471l-3.728943,-1.506935l-20.88063,11.301949l-20.88063,-11.301949l-3.728935,1.506935a7.193566,7.587381 0 0 0 -1.364422,0.753471l9.015175,17.638588a7.143561,7.534639 0 0 0 4.779041,3.804993z" class="cls-3"/>
   <path id="svg_24" d="m58.017094,114.760399l-22.409348,0a19.451918,20.516823 0 0 1 -19.43049,-20.494217l0,-29.520699a8.68657,9.162121 0 0 1 5.507687,-8.484001l3.728939,-1.506935a1.428712,1.506928 0 0 1 1.171543,0.067822l20.223421,10.947819l20.230568,-10.970421a1.428712,1.506928 0 0 1 1.171539,-0.06781l3.728943,1.506924a8.68657,9.162121 0 0 1 5.507683,8.484005l0,29.520699a19.451918,20.516823 0 0 1 -19.430485,20.516815zm-32.146027,-56.969402l-3.164597,1.280895a5.807715,6.125662 0 0 0 -3.686079,5.673592l0,29.520699a16.594492,17.502968 0 0 0 16.573065,17.480362l22.423637,0a16.594492,17.502968 0 0 0 16.573063,-17.480362l0,-29.520699a5.807715,6.125662 0 0 0 -3.686073,-5.673592l-3.136024,-1.280895l-20.302002,10.985516a1.428712,1.506928 0 0 1 -1.30727,0l-20.28772,-10.985516z" class="cls-2"/>
   <path id="svg_25" d="m53.288055,103.028984l-3.571781,5.198898a3.571781,3.76732 0 0 1 -5.836288,0l-3.571781,-5.198898a7.20071,7.594917 0 0 1 -1.278698,-5.605782l3.278896,-22.204582l8.972317,0l3.257462,22.181984a7.20071,7.594917 0 0 1 -1.250126,5.62838z" class="cls-5"/>
   <path id="svg_26" d="m43.15134,75.21862l-1.157253,7.956596a8.779437,9.260072 0 0 0 9.650951,0l-1.171543,-7.956596l-7.322155,0z" class="cls-6"/>
   <path id="svg_27" d="m46.808846,111.317078a5.000493,5.274248 0 0 1 -4.100399,-2.192581l-3.571785,-5.198875a8.572273,9.041568 0 0 1 -1.528721,-6.720924l3.257462,-22.181969a1.428712,1.506928 0 0 1 1.428715,-1.273361l8.986603,0a1.428712,1.506928 0 0 1 1.428707,1.273361l3.257462,22.181969a8.572273,9.041568 0 0 1 -1.528721,6.720924l-3.571777,5.198875a5.000493,5.274248 0 0 1 -4.057545,2.192581zm-3.271748,-34.591515l-3.06459,20.901093a5.714849,6.027711 0 0 0 1.021526,4.520767l3.571785,5.198906a2.143068,2.260392 0 0 0 3.521778,0l3.571781,-5.198906l0,0a5.714849,6.027711 0 0 0 1.02153,-4.520767l-3.093166,-20.901093l-6.550644,0z" class="cls-2"/>
   <path id="svg_28" d="m56.516949,70.818398l-7.186428,7.414093a3.571781,3.76732 0 0 1 -5.043354,0l-7.179279,-7.429161l9.700958,-4.136505l9.708103,4.151573z" class="cls-5"/>
   <path id="svg_29" d="m46.808846,80.831924a5.000493,5.274248 0 0 1 -3.521778,-1.50692l-7.179279,-7.429146a1.428712,1.506928 0 0 1 0.464333,-2.471375l9.708103,-4.136513a1.428712,1.506928 0 0 1 1.071537,0l9.700958,4.136513a1.428712,1.506928 0 0 1 0.464329,2.471375l-7.179279,7.429146a5.000493,5.274248 0 0 1 -3.528923,1.50692zm-7.143559,-9.478584l5.621983,5.816757a2.178786,2.298065 0 0 0 3.043156,0l5.621983,-5.816757l-7.143562,-3.01384l-7.143559,3.01384z" class="cls-2"/>
   <polygon id="svg_30" points="33.364662170410156,49.6611433122423 25.935359954833984,56.14091985942355 36.1077880859375,76.13031520090408 46.80884552001953,67.43533336579276 33.364662170410156,49.6611433122423 " class="cls-7"/>
   <path id="svg_31" d="m36.107788,77.637245a1.428712,1.506928 0 0 1 -0.300026,0a1.428712,1.506928 0 0 1 -0.957237,-0.753464l-10.172432,-20.027073a1.428712,1.506928 0 0 1 0.350033,-1.876129l7.429302,-6.479782a1.428712,1.506928 0 0 1 2.028774,0.218506l13.44418,17.781742a1.428712,1.506928 0 0 1 -0.242878,2.132294l-10.693913,8.694984a1.428712,1.506928 0 0 1 -0.885803,0.308922zm-8.357964,-21.096981l8.822296,17.32967l8.215099,-6.675713l-11.629719,-15.400784l-5.407677,4.746826z" class="cls-2"/>
   <polygon id="svg_32" points="60.253028869628906,49.6611433122423 67.6894760131836,56.14091985942355 57.50990295410156,76.13031520090408 46.80884552001953,67.43533336579276 60.253028869628906,49.6611433122423 " class="cls-7"/>
   <path id="svg_33" d="m57.517048,77.637245a1.428712,1.506928 0 0 1 -0.871513,-0.31646l-10.715343,-8.694969a1.428712,1.506928 0 0 1 -0.242882,-2.132301l13.451324,-17.774212a1.428712,1.506928 0 0 1 2.028767,-0.218506l7.42931,6.479782a1.428712,1.506928 0 0 1 0.350037,1.876129l-10.172436,19.989399a1.428712,1.506928 0 0 1 -0.957233,0.753479a1.428712,1.506928 0 0 1 -0.30003,0.037659zm-8.679428,-10.458084l8.215099,6.675705l8.822289,-17.329685l-5.407673,-4.716679l-11.629715,15.370659z" class="cls-2"/>
   <rect id="svg_34" ry="20.16" rx="20.16" height="37.974582" width="28.80284" y="15.694977" x="32.407427" class="cls-8"/>
   <rect id="svg_35" ry="20.16" rx="20.16" height="32.700335" width="28.80284" y="15.694977" x="32.407427" class="cls-9"/>
   <path id="svg_36" d="m46.808846,55.176483a15.851563,16.719364 0 0 1 -15.83013,-16.696758l0,-7.59491a15.830132,16.69676 0 0 1 31.660261,0l0,7.59491a15.851563,16.719364 0 0 1 -15.830132,16.696758zm0,-37.974573a12.986996,13.697974 0 0 0 -12.972706,13.682905l0,7.59491a12.972708,13.682904 0 1 0 25.945419,0l0,-7.59491a12.986996,13.697974 0 0 0 -12.972713,-13.682905z" class="cls-2"/>
   <polygon id="svg_37" points="109.92220306396484,86.86718432917132 109.92220306396484,93.19627220199072 91.9561538696289,96.4587749278462 73.99009704589844,93.19627220199072 73.99009704589844,86.86718432917132 81.26224517822266,76.92898747724303 102.65007019042969,76.92898747724303 109.92220306396484,86.86718432917132 " class="cls-1"/>
   <path id="svg_38" d="m91.956154,97.965706l-0.242882,0l-17.966049,-3.262512a1.428712,1.506928 0 0 1 -1.185837,-1.50692l0,-6.329086a1.428712,1.506928 0 0 1 0.300041,-0.919235l7.272133,-9.975868a1.428712,1.506928 0 0 1 1.128685,-0.5877l21.387825,0a1.428712,1.506928 0 0 1 1.128685,0.5877l7.272141,9.938202a1.428712,1.506928 0 0 1 0.300026,0.91922l0,6.329102a1.428712,1.506928 0 0 1 -1.185829,1.506927l-17.966057,3.262497l-0.242882,0.037674zm-16.294464,-6.065376l16.537346,3.013847l16.537346,-3.013847l0,-4.520805l-6.543503,-8.943611l-20.194847,0l-6.543503,8.943611l0.207161,4.520805z" class="cls-2"/>
   <path id="svg_39" d="m121.159035,93.768906l0,29.520752a18.001776,18.987291 0 0 1 -18.001762,18.987274l-22.402222,0a18.001776,18.987291 0 0 1 -18.001778,-18.987274l0,-29.520752a7.20071,7.594917 0 0 1 4.600456,-7.082565l3.728935,-1.50692l20.880638,11.301964l20.880623,-11.301964l3.728943,1.50692a7.20071,7.594917 0 0 1 4.586166,7.082565z" class="cls-3"/>
   <path id="svg_40" d="m121.159035,93.768906l0,22.031303a18.001776,18.987291 0 0 1 -18.001762,18.987282l-22.402222,0a18.001776,18.987291 0 0 1 -18.001778,-18.987282l0,-22.031303a7.20071,7.594917 0 0 1 4.600456,-7.082565l3.728935,-1.50692l20.880638,11.301964l20.880623,-11.301964l3.728943,1.50692a7.20071,7.594917 0 0 1 4.586166,7.082565z" class="cls-4"/>
   <path id="svg_41" d="m79.769241,108.883385a7.086413,7.474362 0 0 0 4.157547,-0.391792l0.500046,0.519882a10.765347,11.3547 0 0 0 15.044342,0l0.500061,-0.519882a7.143561,7.534639 0 0 0 2.678833,0.557564a7.236428,7.63259 0 0 0 1.500137,-0.165771a7.143561,7.534639 0 0 0 4.800476,-3.767311l8.979462,-17.638596a7.193566,7.587381 0 0 0 -1.364426,-0.753448l-3.728935,-1.506935l-20.88063,11.301956l-20.88063,-11.301956l-3.728935,1.506935a7.193566,7.587381 0 0 0 -1.364426,0.753448l8.979462,17.646133a7.143561,7.534639 0 0 0 4.807617,3.759773z" class="cls-3"/>
   <path id="svg_42" d="m103.157249,143.783844l-22.402199,0a19.451918,20.516823 0 0 1 -19.430489,-20.494186l0,-29.520752a8.68657,9.162121 0 0 1 5.50769,-8.483986l3.728935,-1.506943a1.428712,1.506928 0 0 1 1.171539,0.067818l20.223427,10.947815l20.223419,-10.947815a1.428712,1.506928 0 0 1 1.171555,-0.067818l3.728928,1.506943a8.68657,9.162121 0 0 1 5.507698,8.483986l0,29.520752a19.451918,20.516823 0 0 1 -19.430504,20.494186zm-32.146019,-56.969414l-3.136024,1.280899a5.807715,6.125662 0 0 0 -3.686081,5.673576l0,29.520752a16.594492,17.502968 0 0 0 16.573067,17.480316l22.409355,0a16.594492,17.502968 0 0 0 16.573059,-17.480316l0,-29.520752a5.807715,6.125662 0 0 0 -3.686073,-5.673576l-3.136032,-1.280899l-20.316277,11.00811a1.428712,1.506928 0 0 1 -1.307274,0l-20.28772,-11.00811z" class="cls-2"/>
   <path id="svg_43" d="m98.428223,132.052399l-3.571777,5.198914a3.571781,3.76732 0 0 1 -5.836296,0l-3.571777,-5.198914a7.20071,7.594917 0 0 1 -1.278702,-5.605759l3.257469,-22.181984l9.000885,0l3.286041,22.189522a7.20071,7.594917 0 0 1 -1.285843,5.598221z" class="cls-5"/>
   <path id="svg_44" d="m88.291504,104.264664l-1.164398,7.926453a8.779437,9.260072 0 0 0 9.650955,0l-1.164406,-7.926453l-7.322151,0z" class="cls-6"/>
   <path id="svg_45" d="m91.956154,140.340515a5.000493,5.274248 0 0 1 -4.078972,-2.200089l-3.571777,-5.198914a8.572273,9.041568 0 0 1 -1.528717,-6.720932l3.257454,-22.181976a1.428712,1.506928 0 0 1 1.428719,-1.273331l9.000877,0a1.428712,1.506928 0 0 1 1.428719,1.273331l3.257462,22.181976a8.572273,9.041568 0 0 1 -1.528717,6.720932l-3.571785,5.198914a5.000493,5.274248 0 0 1 -4.093262,2.200089zm-3.278893,-34.561378l-3.06459,20.901077a5.714849,6.027711 0 0 0 1.021538,4.520775l3.571777,5.198944a2.143068,2.260392 0 0 0 3.521767,0l3.571785,-5.198944l0,0a5.714849,6.027711 0 0 0 1.021538,-4.520775l-3.06459,-20.90863l-6.579224,0.007553z" class="cls-2"/>
   <path id="svg_46" d="m101.657112,99.84182l-7.179283,7.429153a3.571781,3.76732 0 0 1 -5.04335,0l-7.179283,-7.429153l9.700958,-4.13652l9.700958,4.13652z" class="cls-5"/>
   <path id="svg_47" d="m91.956154,109.877975a5.000493,5.274248 0 0 1 -3.521774,-1.506927l-7.150703,-7.451759a1.428712,1.506928 0 0 1 0.464333,-2.471367l9.700951,-4.13652a1.428712,1.506928 0 0 1 1.071533,0l9.700958,4.13652a1.428712,1.506928 0 0 1 0.46434,2.471367l-7.207863,7.451759a5.000493,5.274248 0 0 1 -3.521774,1.506927zm-7.143555,-9.478584l5.621979,5.816742a2.178786,2.298065 0 0 0 3.043167,0l5.621979,-5.816742l-7.14357,-3.013863l-7.143555,3.013863z" class="cls-2"/>
   <polygon id="svg_48" points="78.51197814941406,78.67702070428277 71.0826644897461,85.16434283629269 81.25509643554688,105.15374189481008 91.9561538696289,96.4587749278462 78.51197814941406,78.67702070428277 " class="cls-7"/>
   <path id="svg_49" d="m81.283676,106.660683a1.428712,1.506928 0 0 1 -0.300026,0a1.428712,1.506928 0 0 1 -0.957245,-0.753471l-10.172424,-20.027069a1.428712,1.506928 0 0 1 0.350029,-1.876137l7.429306,-6.479774a1.428712,1.506928 0 0 1 2.02877,0.218498l13.444191,17.781746a1.428712,1.506928 0 0 1 -0.242897,2.132309l-10.715332,8.694969a1.428712,1.506928 0 0 1 -0.864372,0.308929zm-8.357971,-21.096992l8.822304,17.329666l8.215096,-6.675682l-11.629723,-15.38575l-5.407677,4.731766z" class="cls-2"/>
   <polygon id="svg_50" points="105.40033721923828,78.67702070428277 112.82964324951172,85.16434283629269 102.65721130371094,105.15374189481008 91.9561538696289,96.4587749278462 105.40033721923828,78.67702070428277 " class="cls-7"/>
   <path id="svg_51" d="m102.657211,106.660683a1.428712,1.506928 0 0 1 -0.871513,-0.31646l-10.715347,-8.694977a1.428712,1.506928 0 0 1 -0.242874,-2.132294l13.444176,-17.781769a1.428712,1.506928 0 0 1 2.028778,-0.218506l7.429298,6.479805a1.428712,1.506928 0 0 1 0.350044,1.876137l-10.17244,19.989388a1.428712,1.506928 0 0 1 -0.95723,0.753464a1.428712,1.506928 0 0 1 -0.292892,0.045212zm-8.67942,-10.458099l8.215088,6.675697l8.822296,-17.329674l-5.407669,-4.716682l-11.629715,15.370659z" class="cls-2"/>
   <rect id="svg_52" ry="20.16" rx="20.16" height="37.974582" width="28.80284" y="44.718408" x="77.554736" class="cls-8"/>
   <rect id="svg_53" ry="20.16" rx="20.16" height="32.700335" width="28.80284" y="44.718408" x="77.554736" class="cls-9"/>
   <path id="svg_54" d="m91.956154,84.199921a15.851563,16.719364 0 0 1 -15.830124,-16.696777l0,-7.594898a15.830132,16.69676 0 0 1 31.660263,0l0,7.594906a15.851563,16.719364 0 0 1 -15.830139,16.69677zm0,-37.974594a12.986996,13.697974 0 0 0 -12.972702,13.682911l0,7.594906a12.972708,13.682904 0 1 0 25.945412,0l0,-7.594898a12.986996,13.697974 0 0 0 -12.97271,-13.682919z" class="cls-2"/>
   <circle id="svg_55" r="3.057594" cy="72.581504" cx="5.561923" class="cls-10"/>
   <circle id="svg_56" r="2.446078" cy="152.448681" cx="56.28121" class="cls-10"/>
   <circle id="svg_57" r="1.834562" cy="121.55666" cx="152.719289" class="cls-10"/>
   <circle id="svg_58" r="1.223036" cy="6.276678" cx="132.002961" class="cls-10"/>
   <circle id="svg_59" r="0.611518" cy="17.578637" cx="172.006905" class="cls-10"/>
   <circle id="svg_60" r="3.05759" cy="43.949874" cx="164.863344" class="cls-11"/>
   <circle id="svg_61" r="2.446075" cy="28.127132" cx="76.283182" class="cls-11"/>
   <circle id="svg_62" r="1.834555" cy="92.171566" cx="11.991128" class="cls-11"/>
   <circle id="svg_63" r="1.223037" cy="26.620204" cx="20.563402" class="cls-11"/>
   <circle id="svg_64" r="0.611519" cy="3.262822" cx="56.995566" class="cls-11"/>
   <circle id="svg_65" r="3.057594" cy="127.584371" cx="37.70795" class="cls-12"/>
   <circle id="svg_66" r="2.446071" cy="6.276678" cx="147.00444" class="cls-12"/>
   <circle id="svg_67" r="1.834557" cy="25.113276" cx="102.000003" class="cls-12"/>
   <circle id="svg_68" r="1.223039" cy="141.900186" cx="152.719289" class="cls-12"/>
   <circle id="svg_69" r="0.611519" cy="153.202145" cx="149.861865" class="cls-12"/>
   <circle id="svg_70" r="3.057586" cy="123.817051" cx="10.562416" class="cls-13"/>
   <circle id="svg_71" r="2.446078" cy="80.869607" cx="179.150467" class="cls-13"/>
   <circle id="svg_72" r="1.834551" cy="137.379402" cx="127.002468" class="cls-13"/>
   <circle id="svg_73" r="1.223039" cy="7.783606" cx="88.427236" class="cls-13"/>
   <circle id="svg_74" r="0.611518" cy="9.290534" cx="112.715345" class="cls-13"/>
  </g>
 </g>
</svg>