<svg width="180" height="180" xmlns="http://www.w3.org/2000/svg">
 <defs>
  <style>.cls-1{fill:#cbecf9;}.cls-2{fill:#fff;}.cls-3{fill:#2fb1ea;}.cls-4{fill:#6dd0fc;}.cls-5{fill:#a4ecff;}.cls-6{fill:#f88;}.cls-7{fill:#ffe76e;}.cls-8{fill:#90fc95;}.cls-9{fill:#d4ffd4;}.cls-10{fill:#ffbdbd;}.cls-11{fill:#bbf1ff;}.cls-12{fill:#fff4c5;}</style>
 </defs>
 <title>business economic finance interprise company browser</title>
 <g>
  <title>background</title>
  <rect fill="none" id="canvas_background" height="182" width="182" y="-1" x="-1"/>
 </g>
 <g>
  <title>Layer 1</title>
  <g id="Layer_2">
   <path id="svg_1" d="m158.333344,49.885715l0,93.600002a8,8.914286 0 0 1 -8,8.914276l-122.666676,0a8,8.914286 0 0 1 -8,-8.914276l0,-93.600002l138.666676,0z" class="cls-1"/>
   <path id="svg_2" d="m152.91333,55.732002l0,81.714287a8,8.914286 0 0 1 -8,8.914276l-117.246662,0a8,8.914286 0 0 1 -8,-8.914276l0,-81.714287l133.246662,0z" class="cls-2"/>
   <path id="svg_3" d="m150.333344,153.885712l-122.666676,0a9.333334,10.400001 0 0 1 -9.333336,-10.399994l0,-93.600002a1.333333,1.485714 0 0 1 1.333336,-1.485714l138.666676,0a1.333333,1.485714 0 0 1 1.333328,1.485714l0,93.600002a9.333334,10.400001 0 0 1 -9.333328,10.399994zm-129.333344,-102.514282l0,92.114288a6.666667,7.428572 0 0 0 6.666668,7.428574l122.666676,0a6.666667,7.428572 0 0 0 6.666656,-7.428574l0,-92.114288l-136,0z" class="cls-3"/>
   <path id="svg_4" d="m158.333344,36.514286l0,13.371429l-138.666676,0l0,-13.371429a8,8.914286 0 0 1 8,-8.914286l122.666676,0a8,8.914286 0 0 1 8,8.914286z" class="cls-4"/>
   <path id="svg_5" d="m152.91333,44.544571l0,-8.030285a8,8.914286 0 0 0 -8,-8.914286l-117.246662,0a8,8.914286 0 0 0 -8,8.914286l0,8.030285l133.246662,0z" class="cls-5"/>
   <path id="svg_6" d="m158.333344,51.371429l-138.666676,0a1.333333,1.485714 0 0 1 -1.333336,-1.485714l0,-13.371429a9.333334,10.400001 0 0 1 9.333336,-10.4l122.666676,0a9.333334,10.400001 0 0 1 9.333328,10.4l0,13.371429a1.333333,1.485714 0 0 1 -1.333328,1.485714zm-137.333344,-2.971428l136,0l0,-11.885715a6.666667,7.428572 0 0 0 -6.666656,-7.428572l-122.666676,0a6.666667,7.428572 0 0 0 -6.666668,7.428572l0,11.885715z" class="cls-3"/>
   <circle id="svg_7" r="4" cy="38.742858" cx="33.000001" class="cls-6"/>
   <circle id="svg_8" r="4" cy="38.742858" cx="49.000001" class="cls-7"/>
   <circle id="svg_9" r="4" cy="38.742858" cx="65.000002" class="cls-8"/>
   <rect id="svg_10" ry="7.86" rx="7.86" height="60.89943" width="10.48" y="70.693144" x="33.086668" class="cls-5"/>
   <rect id="svg_11" ry="7.86" rx="7.86" height="60.89943" width="10.48" y="70.693144" x="53.353335" class="cls-5"/>
   <rect id="svg_12" ry="7.86" rx="7.86" height="60.89943" width="10.48" y="70.693144" x="73.626669" class="cls-5"/>
   <rect id="svg_13" ry="7.86" rx="7.86" height="60.89943" width="10.48" y="70.693144" x="93.893336" class="cls-5"/>
   <rect id="svg_14" ry="7.86" rx="7.86" height="60.89943" width="10.48" y="70.693144" x="114.16667" class="cls-5"/>
   <path id="svg_15" d="m33.08667,80.506287l10.479996,0a0,0 0 0 1 0,0l0,45.247437a5.24,5.838857 0 0 1 -5.23333,5.846283l0,0a5.24,5.838857 0 0 1 -5.240002,-5.83886l0,-45.25486a0,0 0 0 1 -0.006664,0z" class="cls-7"/>
   <path id="svg_16" d="m53.353333,94.197144l10.480003,0a0,0 0 0 1 0,0l0,31.556564a5.24,5.838857 0 0 1 -5.240002,5.846298l0,0a5.24,5.838857 0 0 1 -5.240002,-5.83886l0,-31.564003a0,0 0 0 1 0,0z" class="cls-7"/>
   <path id="svg_17" d="m73.626671,94.197144l10.480003,0a0,0 0 0 1 0,0l0,31.556564a5.24,5.838857 0 0 1 -5.240005,5.846298l0,0a5.24,5.838857 0 0 1 -5.239998,-5.83886l0,-31.564003a0,0 0 0 1 0,0z" class="cls-7"/>
   <path id="svg_18" d="m93.893333,101.380577l10.480003,0a0,0 0 0 1 0,0l0,24.373146a5.24,5.838857 0 0 1 -5.240005,5.846283l0,0a5.24,5.838857 0 0 1 -5.239998,-5.83886l0,-24.380569a0,0 0 0 1 0,0z" class="cls-7"/>
   <path id="svg_19" d="m114.166672,86.003433l10.479996,0a0,0 0 0 1 0,0l0,39.75029a5.24,5.838857 0 0 1 -5.239998,5.838852l0,0a5.24,5.838857 0 0 1 -5.239998,-5.838852l0,-39.75029a0,0 0 0 1 0,0z" class="cls-7"/>
   <rect id="svg_20" ry="7.86" rx="7.86" height="60.89943" width="10.48" y="70.693144" x="134.433337" class="cls-7"/>
   <circle id="svg_21" r="3.333332" cy="158.34286" cx="139.666671" class="cls-9"/>
   <circle id="svg_22" r="2.666667" cy="17.942857" cx="79.000002" class="cls-9"/>
   <circle id="svg_23" r="2" cy="19.428572" cx="143.000004" class="cls-9"/>
   <circle id="svg_24" r="1.333332" cy="108.571431" cx="11.666667" class="cls-9"/>
   <circle id="svg_25" r="0.666664" cy="165.028575" cx="23.000001" class="cls-9"/>
   <circle id="svg_26" r="3.333332" cy="154.628574" cx="8.333333" class="cls-10"/>
   <circle id="svg_27" r="2.666668" cy="113.028573" cx="165.000005" class="cls-10"/>
   <circle id="svg_28" r="2" cy="40.971429" cx="13" class="cls-10"/>
   <circle id="svg_29" r="1.333332" cy="147.94286" cx="162.333338" class="cls-10"/>
   <circle id="svg_30" r="0.666666" cy="76.628573" cx="161.666671" class="cls-10"/>
   <circle id="svg_31" r="3.333333" cy="15.714286" cx="104.333336" class="cls-11"/>
   <circle id="svg_32" r="2.666666" cy="82.57143" cx="11.666667" class="cls-11"/>
   <circle id="svg_33" r="2" cy="158.34286" cx="93.666669" class="cls-11"/>
   <circle id="svg_34" r="1.333332" cy="95.942859" cx="165.000005" class="cls-11"/>
   <circle id="svg_35" r="0.666667" cy="17.942857" cx="32.333334" class="cls-11"/>
   <circle id="svg_36" r="3.333332" cy="37.257143" cx="169.666672" class="cls-12"/>
   <circle id="svg_37" r="2.666666" cy="97.428573" cx="9" class="cls-12"/>
   <circle id="svg_38" r="2" cy="19.428572" cx="57.000002" class="cls-12"/>
   <circle id="svg_39" r="1.333332" cy="17.942857" cx="121.000003" class="cls-12"/>
   <circle id="svg_40" r="0.666664" cy="167.257146" cx="69.000002" class="cls-12"/>
  </g>
 </g>
</svg>