<svg width="200" height="250" xmlns="http://www.w3.org/2000/svg">
 <defs>
  <style>.cls-1{fill:#cbecf9;}.cls-2{fill:#2fb1ea;}.cls-3{fill:#e5f5fc;}.cls-4{fill:#fff;}.cls-5{fill:#52e355;}.cls-6{fill:#90fc95;}.cls-7{fill:#f97171;}.cls-8{fill:#f88;}.cls-9{fill:#a4ecff;}.cls-10{fill:#d4ffd4;}.cls-11{fill:#ffbdbd;}.cls-12{fill:#bbf1ff;}.cls-13{fill:#fff4c5;}</style>
 </defs>
 <title>business economic finance interprise company checklist</title>
 <g>
  <title>background</title>
  <rect fill="none" id="canvas_background" height="252" width="202" y="-1" x="-1"/>
 </g>
 <g>
  <title>Layer 1</title>
  <g id="Layer_2">
   <path id="svg_1" d="m157.357132,204.354843l-83.285706,0a15.714285,15.645162 0 0 1 -15.714283,-15.645157l0,-115.7742c0,-8.604843 7.07143,0 15.714283,0l83.285706,0a15.714285,15.645162 0 0 1 15.714294,15.645157l0,100.129044a15.714285,15.645162 0 0 1 -15.714294,15.645157z" class="cls-1"/>
   <path id="svg_2" d="m157.357132,205.919357l-83.285706,0a17.285713,17.209677 0 0 1 -17.285713,-17.209671l0,-115.7742c0,-1.564522 0.188568,-3.809593 1.791428,-4.865654c1.814999,-1.196846 4.07,-0.234673 6.922142,0.977829c2.435715,1.032585 5.5,2.346771 8.572144,2.346771l83.285706,0a17.285713,17.209677 0 0 1 17.285721,17.209679l0,100.105576a17.285713,17.209677 0 0 1 -17.285721,17.209671zm-96.823563,-135.275887a0.510714,0.508468 0 0 0 -0.220001,0.039108s-0.384998,0.359848 -0.384998,2.252907l0,115.7742a14.142857,14.080646 0 0 0 14.142857,14.080643l83.285706,0a14.142857,14.080646 0 0 0 14.142868,-14.080643l0,-100.129044a14.142857,14.080646 0 0 0 -14.142868,-14.080643l-83.285706,0c-3.755714,0 -7.071426,-1.431534 -9.805717,-2.573631a15.502142,15.433951 0 0 0 -3.73214,-1.282898z" class="cls-2"/>
   <rect id="svg_3" ry="20" rx="20" height="131.419357" width="114.714283" y="57.290323" x="42.642856" class="cls-3"/>
   <path id="svg_4" d="m141.642853,190.274185l-83.285709,0a17.285713,17.209677 0 0 1 -17.285717,-17.209671l0,-100.129028a17.285713,17.209677 0 0 1 17.285717,-17.209679l83.285709,0a17.285713,17.209677 0 0 1 17.285721,17.209679l0,100.129028a17.285713,17.209677 0 0 1 -17.285721,17.209671zm-83.285709,-131.419342a14.142857,14.080646 0 0 0 -14.14286,14.080643l0,100.129028a14.142857,14.080646 0 0 0 14.14286,14.080658l83.285709,0a14.142857,14.080646 0 0 0 14.142853,-14.080658l0,-100.129028a14.142857,14.080646 0 0 0 -14.142853,-14.080643l-83.285709,0z" class="cls-2"/>
   <rect id="svg_5" ry="20" rx="20" height="131.419357" width="114.714283" y="41.645161" x="26.928571" class="cls-1"/>
   <rect id="svg_6" ry="20" rx="20" height="124.003551" width="107.642855" y="41.645161" x="26.928571" class="cls-4"/>
   <path id="svg_7" d="m125.928566,174.629028l-83.285709,0a17.285713,17.209677 0 0 1 -17.285715,-17.209671l0,-100.129036a17.285713,17.209677 0 0 1 17.285715,-17.209675l83.285709,0a17.285713,17.209677 0 0 1 17.285713,17.209675l0,100.129036a17.285713,17.209677 0 0 1 -17.285713,17.209671zm-83.285709,-131.419353a14.142857,14.080646 0 0 0 -14.142857,14.080647l0,100.129036a14.142857,14.080646 0 0 0 14.142857,14.080643l83.285709,0a14.142857,14.080646 0 0 0 14.14286,-14.080643l0,-100.129036a14.142857,14.080646 0 0 0 -14.14286,-14.080647l-83.285709,0z" class="cls-2"/>
   <rect id="svg_8" ry="6" rx="6" height="23.467742" width="23.571428" y="59.637097" x="41.071428" class="cls-5"/>
   <rect id="svg_9" ry="6" rx="6" height="17.991936" width="23.571428" y="59.637097" x="41.071428" class="cls-6"/>
   <path id="svg_10" d="m59.92857,84.669365l-14.142857,0a6.285714,6.258065 0 0 1 -6.285713,-6.258072l0,-14.08065a6.285714,6.258065 0 0 1 6.285713,-6.258064l14.142857,0a6.285714,6.258065 0 0 1 6.285717,6.258064l0,14.08065a6.285714,6.258065 0 0 1 -6.285717,6.258072zm-14.142857,-23.467751a3.142857,3.129032 0 0 0 -3.142857,3.129028l0,14.08065a3.142857,3.129032 0 0 0 3.142857,3.129036l14.142857,0a3.142857,3.129032 0 0 0 3.142857,-3.129036l0,-14.08065a3.142857,3.129032 0 0 0 -3.142857,-3.129028l-14.142857,0z" class="cls-2"/>
   <rect id="svg_11" ry="6" rx="6" height="23.467742" width="23.571428" y="95.620969" x="41.071428" class="cls-1"/>
   <rect id="svg_12" ry="6" rx="6" height="17.991936" width="23.571428" y="95.620969" x="41.071428" class="cls-4"/>
   <path id="svg_13" d="m59.92857,120.653221l-14.142857,0a6.285714,6.258065 0 0 1 -6.285713,-6.258057l0,-14.08065a6.285714,6.258065 0 0 1 6.285713,-6.258057l14.142857,0a6.285714,6.258065 0 0 1 6.285717,6.258057l0,14.08065a6.285714,6.258065 0 0 1 -6.285717,6.258057zm-14.142857,-23.467735a3.142857,3.129032 0 0 0 -3.142857,3.129028l0,14.08065a3.142857,3.129032 0 0 0 3.142857,3.129036l14.142857,0a3.142857,3.129032 0 0 0 3.142857,-3.129036l0,-14.08065a3.142857,3.129032 0 0 0 -3.142857,-3.129028l-14.142857,0z" class="cls-2"/>
   <rect id="svg_14" ry="6" rx="6" height="23.467742" width="23.571428" y="131.60484" x="41.071428" class="cls-7"/>
   <rect id="svg_15" ry="6" rx="6" height="17.991936" width="23.571428" y="131.60484" x="41.071428" class="cls-8"/>
   <path id="svg_16" d="m59.92857,156.6371l-14.142857,0a6.285714,6.258065 0 0 1 -6.285713,-6.258072l0,-14.080643a6.285714,6.258065 0 0 1 6.285713,-6.258057l14.142857,0a6.285714,6.258065 0 0 1 6.285717,6.258057l0,14.080643a6.285714,6.258065 0 0 1 -6.285717,6.258072zm-14.142857,-23.467758a3.142857,3.129032 0 0 0 -3.142857,3.129044l0,14.080643a3.142857,3.129032 0 0 0 3.142857,3.129044l14.142857,0a3.142857,3.129032 0 0 0 3.142857,-3.129044l0,-14.080643a3.142857,3.129032 0 0 0 -3.142857,-3.129044l-14.142857,0z" class="cls-2"/>
   <rect id="svg_17" ry="3" rx="3" height="7.822581" width="25.928571" y="59.637097" x="75.642856" class="cls-9"/>
   <rect id="svg_18" ry="3" rx="3" height="7.822581" width="51.857142" y="75.282259" x="75.642856" class="cls-9"/>
   <rect id="svg_19" ry="3" rx="3" height="7.822581" width="25.928571" y="95.620969" x="75.642856" class="cls-9"/>
   <rect id="svg_20" ry="3" rx="3" height="7.822581" width="51.857142" y="111.26613" x="75.642856" class="cls-9"/>
   <rect id="svg_21" ry="3" rx="3" height="7.822581" width="25.928571" y="131.60484" x="75.642856" class="cls-9"/>
   <rect id="svg_22" ry="3" rx="3" height="7.822581" width="51.857142" y="147.250002" x="75.642856" class="cls-9"/>
   <circle id="svg_23" r="3.66935" cy="119.088711" cx="18.285714" class="cls-10"/>
   <circle id="svg_24" r="2.935486" cy="216.870971" cx="99.999998" class="cls-10"/>
   <circle id="svg_25" r="2.201614" cy="133.169357" cx="194.28571" class="cls-10"/>
   <circle id="svg_26" r="1.467743" cy="27.564516" cx="147.928568" class="cls-10"/>
   <circle id="svg_27" r="0.733871" cy="67.459678" cx="170.714282" class="cls-10"/>
   <circle id="svg_28" r="3.669357" cy="84.669356" cx="195.071424" class="cls-11"/>
   <circle id="svg_29" r="2.935486" cy="41.645161" cx="157.357139" class="cls-11"/>
   <circle id="svg_30" r="2.201612" cy="139.427421" cx="14.357143" class="cls-11"/>
   <circle id="svg_31" r="1.467739" cy="69.024194" cx="18.285714" class="cls-11"/>
   <circle id="svg_32" r="0.733871" cy="35.387097" cx="66.214284" class="cls-11"/>
   <circle id="svg_33" r="3.669355" cy="201.225809" cx="44.999999" class="cls-12"/>
   <circle id="svg_34" r="2.935486" cy="151.161292" cx="183.28571" class="cls-12"/>
   <circle id="svg_35" r="2.201614" cy="32.258065" cx="102.357141" class="cls-12"/>
   <circle id="svg_36" r="1.467743" cy="201.225809" cx="180.142853" class="cls-12"/>
   <circle id="svg_37" r="0.733871" cy="186.362906" cx="178.571425" class="cls-12"/>
   <circle id="svg_38" r="3.669355" cy="178.540325" cx="4.928571" class="cls-13"/>
   <circle id="svg_39" r="2.935486" cy="113.612905" cx="183.28571" class="cls-13"/>
   <circle id="svg_40" r="2.201614" cy="212.959681" cx="136.928568" class="cls-13"/>
   <circle id="svg_41" r="1.467741" cy="184.79839" cx="32.428571" class="cls-13"/>
   <circle id="svg_42" r="0.733871" cy="34.604839" cx="122.785712" class="cls-13"/>
  </g>
 </g>
</svg>