<svg width="200" height="250" xmlns="http://www.w3.org/2000/svg">
 <defs>
  <style>.cls-1{fill:#cbecf9;}.cls-2{fill:#fff;}.cls-3{fill:#90fc95;}.cls-4{fill:#2fb1ea;}.cls-5{fill:#e5f5fc;}.cls-6{fill:#1a96e2;}.cls-7{fill:#ffc444;}.cls-8{fill:#ffe76e;}.cls-9{fill:#d4ffd4;}.cls-10{fill:#ffbdbd;}.cls-11{fill:#bbf1ff;}.cls-12{fill:#fff4c5;}</style>
 </defs>
 <title>business economic finance interprise company search</title>
 <g>
  <title>background</title>
  <rect fill="none" id="canvas_background" height="252" width="202" y="-1" x="-1"/>
 </g>
 <g>
  <title>Layer 1</title>
  <g id="Layer_2">
   <path id="svg_1" d="m121.633339,74.119682l24.771141,0l0,100.166115a10.342857,10.428538 0 0 1 -10.34285,10.428543l-96.231678,0a10.342857,10.428538 0 0 1 -10.342855,-10.428543l0,-125.14246a10.342857,10.428538 0 0 1 10.342855,-10.428539l71.53809,0l0,24.976341a10.342857,10.428538 0 0 0 10.265297,10.428543z" class="cls-1"/>
   <path id="svg_2" d="m121.633339,74.119682l24.771141,0l0,89.24221a10.342857,10.428538 0 0 1 -10.34285,10.428543l-96.231678,0a10.342857,10.428538 0 0 1 -10.342855,-10.428543l0,-114.218563a10.342857,10.428538 0 0 1 10.342855,-10.428535l71.53809,0l0,24.976345a10.342857,10.428538 0 0 0 10.265297,10.428543z" class="cls-2"/>
   <rect id="svg_3" transform="matrix(0, 0.869045, -0.861905, 0, 134.574, -182.444)" ry="7.04" rx="7.04" height="91.64" width="14.09" y="8.253871" x="300.964997" class="cls-3"/>
   <rect id="svg_4" transform="matrix(0, 0.869045, -0.861905, 0, 169.602, -155.399)" ry="7.04" rx="7.04" height="60.51" width="14.09" y="80.023871" x="290.165007" class="cls-3"/>
   <rect id="svg_5" transform="matrix(0, 0.869045, -0.861905, 0, 204.629, -145.301)" ry="7.04" rx="7.04" height="48.89" width="14.09" y="132.283871" x="298.865001" class="cls-3"/>
   <rect id="svg_6" transform="matrix(0, 0.869045, -0.861905, 0, 239.657, -174.657)" ry="7.04" rx="7.04" height="82.67" width="14.09" y="139.143871" x="352.964993" class="cls-3"/>
   <path id="svg_7" d="m146.447571,81.002518l-24.814232,0a10.342857,10.428538 0 0 1 -10.342857,-10.428543l0,-24.976345l35.113998,28.522053l0.043091,6.882835z" class="cls-1"/>
   <path id="svg_8" d="m136.104721,186.452423l-96.274769,0a12.066667,12.166628 0 0 1 -12.066666,-12.166626l0,-125.14246a12.066667,12.166628 0 0 1 12.066666,-12.166626l71.53809,0a1.72381,1.73809 0 0 1 1.723816,1.738087l0,24.976341a8.619048,8.690449 0 0 0 8.619049,8.690453l24.771149,0a1.72381,1.73809 0 0 1 1.723801,1.738091l0,100.166115a12.066667,12.166628 0 0 1 -12.101135,12.166626zm-96.274769,-145.999535a8.619048,8.690449 0 0 0 -8.619045,8.690449l0,125.14246a8.619048,8.690449 0 0 0 8.619045,8.690445l96.274769,0a8.619048,8.690449 0 0 0 8.619034,-8.690445l0,-98.428024l-23.090416,0a12.066667,12.166628 0 0 1 -12.066666,-12.166634l0,-23.238258l-69.736721,0.000008z" class="cls-4"/>
   <path id="svg_9" d="m146.447571,74.119682l-24.814232,0a10.342857,10.428538 0 0 1 -10.342857,-10.428543l0,-24.976345l35.157089,35.404888z" class="cls-5"/>
   <path id="svg_10" d="m146.447571,75.857773l-24.814232,0a12.066667,12.166628 0 0 1 -12.066666,-12.166634l0,-24.976345a1.72381,1.73809 0 0 1 2.939095,-1.225353l35.157089,35.404884a1.72381,1.73809 0 0 1 -1.215286,2.963448zm-33.433281,-32.945492l0,20.778858a8.619048,8.690449 0 0 0 8.619049,8.690453l20.685707,0l-29.304756,-29.469311z" class="cls-4"/>
   <path id="svg_11" d="m158.410812,204.493774l-35.760429,-36.065353a5.171429,5.214269 0 0 1 7.317558,-7.378204l35.760452,36.056686a5.171429,5.214269 0 0 1 -7.317581,7.378189l0,0.008682z" class="cls-4"/>
   <path id="svg_12" d="m135.837524,166.985809l-5.878189,-5.92688a5.171429,5.214269 0 0 0 -7.317566,7.378174l5.878189,5.92691a45.198288,45.572708 0 0 0 7.317566,-7.378204z" class="cls-6"/>
   <circle id="svg_13" r="36.200002" cy="138.950425" cx="100.723527" class="cls-7"/>
   <circle id="svg_14" r="33.347083" cy="136.073886" cx="100.723527" class="cls-8"/>
   <path id="svg_15" d="m100.723534,177.1884a37.923809,38.237972 0 1 1 37.92382,-38.237976a37.923809,38.237972 0 0 1 -37.92382,38.237976zm0,-72.999771a34.476192,34.761795 0 1 0 34.476189,34.761795a34.476192,34.761795 0 0 0 -34.476189,-34.761795z" class="cls-4"/>
   <circle id="svg_16" r="28.330804" cy="136.708289" cx="100.723527" class="cls-7"/>
   <circle id="svg_17" r="26.107088" cy="138.950425" cx="100.723527" class="cls-2"/>
   <path id="svg_18" d="m91.509773,120.935127a8.093287,8.160332 0 0 0 -2.240959,-5.640099a26.193287,26.410271 0 0 0 -12.764809,13.843872l6.895233,0a8.127763,8.195093 0 0 0 8.110535,-8.203773z" class="cls-3"/>
   <path id="svg_19" d="m126.804764,137.716385a8.084667,8.151641 0 0 0 -4.430191,-1.329636l-47.637474,0c-0.077576,0.869034 -0.120674,1.738098 -0.120674,2.563675a25.97781,26.19301 0 0 0 3.921677,13.83519l43.853722,0c0.198227,0 0.387848,0 0.577469,0a25.97781,26.19301 0 0 0 3.878563,-13.809113c-0.043091,-0.443222 -0.043091,-0.851654 -0.043091,-1.260117z" class="cls-3"/>
   <path id="svg_20" d="m100.723534,167.011871a27.830908,28.061459 0 1 1 27.805046,-28.061447a27.856762,28.08753 0 0 1 -27.805046,28.061447zm0,-52.646729a24.383287,24.585279 0 1 0 24.35743,24.585281a24.409143,24.611351 0 0 0 -24.35743,-24.585274l0,-0.000008z" class="cls-4"/>
   <circle id="svg_21" r="4.309526" cy="48.500238" cx="154.385719" class="cls-9"/>
   <circle id="svg_22" r="3.44762" cy="133.666632" cx="20.790477" class="cls-9"/>
   <circle id="svg_23" r="2.585714" cy="51.107372" cx="15.619048" class="cls-9"/>
   <circle id="svg_24" r="1.723812" cy="103.250063" cx="161.280958" class="cls-9"/>
   <circle id="svg_25" r="0.861902" cy="207.535443" cx="184.552387" class="cls-9"/>
   <circle id="svg_26" r="4.309526" cy="226.65443" cx="172.48572" class="cls-10"/>
   <circle id="svg_27" r="3.447616" cy="165.821291" cx="165.590482" class="cls-10"/>
   <circle id="svg_28" r="2.585714" cy="216.225892" cx="45.785716" class="cls-10"/>
   <circle id="svg_29" r="1.723812" cy="25.905072" cx="164.728577" class="cls-10"/>
   <circle id="svg_30" r="0.861906" cy="26.774117" cx="81.985717" class="cls-10"/>
   <circle id="svg_31" r="4.309524" cy="101.511973" cx="11.309524" class="cls-11"/>
   <circle id="svg_32" r="3.447616" cy="222.309206" cx="88.880955" class="cls-11"/>
   <circle id="svg_33" r="2.585714" cy="118.89287" cx="172.48572" class="cls-11"/>
   <circle id="svg_34" r="1.723804" cy="79.785852" cx="159.557148" class="cls-11"/>
   <circle id="svg_35" r="0.861902" cy="195.368816" cx="13.895238" class="cls-11"/>
   <circle id="svg_36" r="4.309522" cy="16.345579" cx="36.304763" class="cls-12"/>
   <circle id="svg_37" r="3.447616" cy="28.512206" cx="133.700004" class="cls-12"/>
   <circle id="svg_38" r="2.585714" cy="163.214157" cx="15.619048" class="cls-12"/>
   <circle id="svg_39" r="1.723808" cy="79.785852" cx="25.100001" class="cls-12"/>
   <circle id="svg_40" r="0.861902" cy="147.571349" cx="187.138101" class="cls-12"/>
  </g>
 </g>
</svg>