<svg width="200" height="250" xmlns="http://www.w3.org/2000/svg">
 <defs>
  <style>.cls-1{fill:#f88;}.cls-2{fill:#f97171;}.cls-3{fill:#2fb1ea;}.cls-4{fill:#90fc95;}.cls-5{fill:#52e355;}.cls-6{fill:#a4ecff;}.cls-7{fill:#6dd0fc;}.cls-8{fill:#fff;}.cls-9{fill:#cbecf9;}.cls-10{fill:#ffc444;}.cls-11{fill:#ffe76e;}.cls-12{fill:#d4ffd4;}.cls-13{fill:#ffbdbd;}.cls-14{fill:#bbf1ff;}.cls-15{fill:#fff4c5;}</style>
 </defs>
 <title>business economic finance interprise company pie chart</title>
 <g>
  <title>background</title>
  <rect fill="none" id="canvas_background" height="252" width="202" y="-1" x="-1"/>
 </g>
 <g>
  <title>Layer 1</title>
  <g id="Layer_2">
   <path id="svg_1" d="m92.800819,44.562538a82.038368,82.126984 0 0 0 -55.407452,133.969643l55.431118,-55.49099l-0.023666,-78.478653z" class="cls-1"/>
   <path id="svg_2" d="m92.800819,78.826859a48.520962,48.573372 0 0 0 -30.093884,74.340729l30.093884,-30.126396l0,-44.214333z" class="cls-2"/>
   <path id="svg_3" d="m37.393368,180.111557l-0.07888,0a1.577661,1.579365 0 0 1 -1.143806,-0.576477a83.616035,83.706352 0 0 1 56.480267,-136.544006a1.577661,1.579365 0 0 1 1.727531,1.579361l0,78.478653a1.577661,1.579365 0 0 1 -0.465408,1.113449l-55.431114,55.483093a1.577661,1.579365 0 0 1 -1.088589,0.465927zm53.829792,-133.795921a80.460709,80.547623 0 0 0 -53.727242,129.855385l53.727242,-53.785278l0,-76.070107z" class="cls-3"/>
   <path id="svg_4" d="m182.348862,118.413651a82.038368,82.126984 0 0 0 -73.771431,-73.851105l0,73.851105l73.771431,0z" class="cls-4"/>
   <path id="svg_5" d="m151.071716,118.413651a48.655064,48.707619 0 0 0 -42.494286,-40.400162l0,40.400162l42.494286,0z" class="cls-5"/>
   <path id="svg_6" d="m182.348862,119.993019l-73.771431,0a1.577661,1.579365 0 0 1 -1.57766,-1.579369l0,-73.851112a1.577661,1.579365 0 0 1 1.727547,-1.579365a83.616035,83.706352 0 0 1 75.191322,75.272541a1.577661,1.579365 0 0 1 -1.577667,1.729408l0.007889,0.007896zm-72.201653,-3.166634l70.442558,0a80.460709,80.547623 0 0 0 -70.442558,-70.518646l0,70.518646z" class="cls-3"/>
   <path id="svg_7" d="m48.523766,189.674606a82.038368,82.126984 0 0 0 104.330711,0l-52.165344,-52.198029l-52.165367,52.198029z" class="cls-6"/>
   <path id="svg_8" d="m73.466583,164.728546a48.418415,48.470715 0 0 0 56.519714,2.045258l-29.297165,-29.297226l-27.222549,27.251968z" class="cls-7"/>
   <path id="svg_9" d="m100.689133,210.016815a83.742241,83.832703 0 0 1 -53.167183,-19.102417a1.577661,1.579365 0 0 1 -0.110435,-2.369049l52.165359,-52.221695a1.577661,1.579365 0 0 1 2.232391,0l52.165359,52.221695a1.577661,1.579365 0 0 1 -0.110443,2.369049a83.742241,83.832703 0 0 1 -53.175049,19.102417zm-49.806767,-20.444885a80.460709,80.547623 0 0 0 99.613514,0l-49.806747,-49.86055l-49.806767,49.86055z" class="cls-3"/>
   <path id="svg_10" d="m164.00853,178.532181a81.659729,81.74794 0 0 0 18.340332,-44.324875l-62.617363,0l44.277031,44.324875z" class="cls-8"/>
   <path id="svg_11" d="m119.731499,134.207306l21.787498,21.826813a48.331642,48.38385 0 0 0 9.529068,-21.826813l-31.316566,0z" class="cls-9"/>
   <path id="svg_12" d="m164.00853,180.111557a1.577661,1.579365 0 0 1 -1.112244,-0.465927l-44.25338,-44.324875a1.577661,1.579365 0 0 1 1.112259,-2.692825l62.617348,0a1.577661,1.579365 0 0 1 1.577667,1.729401a83.07962,83.169365 0 0 1 -18.695282,45.17775a1.577661,1.579365 0 0 1 -1.143799,0.576477l-0.10257,0zm-40.364449,-44.324905l40.340797,40.384369a79.900635,79.986946 0 0 0 16.707428,-40.384369l-57.048225,0z" class="cls-3"/>
   <circle id="svg_13" r="42.0821" cy="126.310476" cx="103.158164" class="cls-10"/>
   <circle id="svg_14" r="36.440773" cy="120.640556" cx="103.158164" class="cls-11"/>
   <path id="svg_15" d="m103.158157,170.185257a43.827423,43.87476 0 1 1 43.827423,-43.874771a43.874752,43.922142 0 0 1 -43.827423,43.874771zm0,-84.59082a40.6721,40.716034 0 1 0 40.672089,40.716049a40.719425,40.763412 0 0 0 -40.672089,-40.716049z" class="cls-3"/>
   <path id="svg_16" d="m108.443336,149.171783l-19.618225,0a4.732983,4.738095 0 1 1 0,-9.476181l19.610329,0a4.314903,4.319563 0 1 0 0,-8.647018l-10.55455,0a13.780868,13.795753 0 1 1 0,-27.599403l19.610321,0a4.732983,4.738095 0 0 1 0,9.476189l-19.610321,0a4.314903,4.319563 0 1 0 0,8.647018l10.562447,0a13.780868,13.795753 0 1 1 0,27.599396z" class="cls-3"/>
   <path id="svg_17" d="m103.158157,112.925354a4.732983,4.738095 0 0 1 -4.732971,-4.738091l0,-9.057663a4.732983,4.738095 0 1 1 9.465958,0l0,9.057663a4.732983,4.738095 0 0 1 -4.732986,4.738091z" class="cls-3"/>
   <path id="svg_18" d="m103.158157,158.229431a4.732983,4.738095 0 0 1 -4.732971,-4.738083l0,-9.057663a4.732983,4.738095 0 0 1 9.465958,0l0,9.057663a4.732983,4.738095 0 0 1 -4.732986,4.738083z" class="cls-3"/>
   <circle id="svg_19" r="3.928504" cy="46.742064" cx="160.056506" class="cls-12"/>
   <circle id="svg_20" r="3.142799" cy="214.944445" cx="142.702235" class="cls-12"/>
   <circle id="svg_21" r="2.357101" cy="62.535714" cx="175.833115" class="cls-12"/>
   <circle id="svg_22" r="1.5714" cy="158.087302" cx="15.70053" class="cls-12"/>
   <circle id="svg_23" r="0.785698" cy="188.095238" cx="160.056506" class="cls-12"/>
   <circle id="svg_24" r="3.928497" cy="222.051588" cx="99.316559" class="cls-13"/>
   <circle id="svg_25" r="3.142799" cy="129.65873" cx="4.656903" class="cls-13"/>
   <circle id="svg_26" r="2.357101" cy="129.65873" cx="191.609724" class="cls-13"/>
   <circle id="svg_27" r="1.571401" cy="39.634921" cx="39.365444" class="cls-13"/>
   <circle id="svg_28" r="0.785698" cy="173.09127" cx="182.932589" class="cls-13"/>
   <circle id="svg_29" r="3.928505" cy="104.388889" cx="195.553877" class="cls-14"/>
   <circle id="svg_30" r="3.142799" cy="210.20635" cx="48.831409" class="cls-14"/>
   <circle id="svg_31" r="2.3571" cy="82.277778" cx="20.433512" class="cls-14"/>
   <circle id="svg_32" r="1.571403" cy="42.003968" cx="131.658609" class="cls-14"/>
   <circle id="svg_33" r="0.785698" cy="193.623016" cx="177.410776" class="cls-14"/>
   <circle id="svg_34" r="3.9285" cy="30.948413" cx="108.782525" class="cls-15"/>
   <circle id="svg_35" r="3.142802" cy="42.003968" cx="67.763341" class="cls-15"/>
   <circle id="svg_36" r="2.357101" cy="207.837302" cx="160.056506" class="cls-15"/>
   <circle id="svg_37" r="1.571396" cy="213.36508" cx="75.651645" class="cls-15"/>
   <circle id="svg_38" r="0.785698" cy="186.515873" cx="18.855852" class="cls-15"/>
  </g>
 </g>
</svg>